<svg fill="#000000" height="108px" width="108px" version="1.1" id="Capa_1" xmlns="http://www.w3.org/2000/svg" xmlns:xlink="http://www.w3.org/1999/xlink" viewBox="-25 -25 300.00 300.00" xml:space="preserve" transform="rotate(0)"><g id="SVGRepo_bgCarrier" stroke-width="0"></g><g id="SVGRepo_tracerCarrier" stroke-linecap="round" stroke-linejoin="round"></g><g id="SVGRepo_iconCarrier"> <path color-rendering="auto" image-rendering="auto" shape-rendering="auto" color-interpolation="sRGB" d="M37.5,0 c-0.776,0-1.542,0.18-2.236,0.527c-11.34,5.67-17.168,16.797-17.6,28.129C17.549,29.095,17.494,29.547,17.5,30v190.01 c0,11.631,5.974,23.533,17.758,29.443c0.696,0.349,1.464,0.531,2.242,0.531l190,0.016c2.761,0,5-2.239,5-5V5c0-2.761-2.239-5-5-5 L37.5,0z M38.854,10H214.01c-8.55,11.623-8.551,28.376,0,40h-83.416l-8.254-16.506c-0.659-2.083-2.593-3.496-4.777-3.492h-0.023 h-0.014h-0.024L57.576,29.94c-1.74-0.036-3.373,0.836-4.312,2.301l-0.012,0.02c-0.07,0.109-0.136,0.22-0.197,0.334 c-0.927,1.685-0.806,3.753,0.312,5.318l6.045,12.09H38.773c-7.35-4.137-11.072-11.702-11.271-19.365v-0.635 c0-0.166,0-0.331-0.018-0.496c0.159-7.727,3.938-15.346,11.371-19.5L38.854,10z M222.5,15.287v29.428 C215.741,36.347,215.741,23.655,222.5,15.287z M65.592,40h48.818l8.09,16.18v91.883l-23.42-7.807c-1.026-0.342-2.136-0.342-3.162,0 L72.5,148.062V55c0-0.776-0.18-1.542-0.527-2.236L65.592,40z M27.5,54.008c1.494,1.435,3.17,2.732,5,3.887v176.727 c-3.332-4.139-5-9.326-5-14.611V54.008z M42.5,60h20v95c0,3.412,3.343,5.822,6.58,4.744l28.42-9.475l28.418,9.475 c3.238,1.08,6.582-1.331,6.582-4.744V60h90v180l-180-0.016V60z"></path> </g></svg>